<svg width="146" height="133" viewBox="0 0 146 133" fill="none" xmlns="http://www.w3.org/2000/svg">
<path fill-rule="evenodd" clip-rule="evenodd" d="M133.752 71.8126C133.752 77.4476 132.982 82.9032 131.541 88.0809L99.156 63.137L72.665 83.541L46.1739 63.137L14.0488 87.8806C12.6436 82.7626 11.8933 77.3749 11.8933 71.8126C11.8933 38.2728 39.1723 11.0833 72.8227 11.0833C106.473 11.0833 133.752 38.2728 133.752 71.8126ZM92.4214 38.5737C90.7802 28.9123 82.344 21.5544 72.1836 21.5544C62.0232 21.5544 53.5869 28.9123 51.9457 38.5737H49.7376C51.4002 27.707 60.8165 19.3817 72.1836 19.3817C83.5507 19.3817 92.9669 27.707 94.6295 38.5737H92.4214ZM72.4987 24.8134C60.5096 35.6768 67.6546 46.0573 72.4987 50.7045L73.5886 48.7128C62.1445 35.6768 72.4987 27.3482 72.4987 27.3482C72.4987 27.3482 80.4914 34.2283 75.0418 43.6433C71.5904 38.7548 71.7721 35.1698 72.4987 30.9693C68.2843 38.6461 72.8014 44.9107 75.5868 47.0833C75.7412 46.8044 75.9241 46.4951 76.1241 46.1568C78.434 42.2508 83.0307 34.4778 72.4987 24.8134ZM70.8281 64.6458C70.8281 56.8 75.5874 41.1085 94.6246 41.1085C94.6246 49.075 90.6282 61.5678 75.7327 64.1026C74.8244 52.515 86.0869 47.6265 86.0869 47.6265C86.0869 47.6265 78.7672 53.4203 78.4575 60.8436C78.4575 60.8436 89.9016 58.852 92.2631 44.0054C81.3639 44.5358 74.6428 51.7908 73.3712 64.6458H70.8281ZM50.1196 40.7464C62.6537 40.9274 69.617 49.4371 71.1914 53.0582C70.4648 54.1445 69.7381 56.3172 69.7381 56.3172C69.7381 56.3172 66.4684 45.6349 52.2995 43.6433C53.7527 53.6014 59.5656 59.9383 66.65 63.9216C54.661 59.7573 49.7563 50.7045 50.1196 40.7464ZM69.5565 58.1278C68.7693 56.2569 65.2332 51.4287 57.3858 47.0833C61.3821 50.7045 65.5601 54.8687 68.8299 61.93L68.9869 61.1874C69.2518 59.9356 69.3441 59.4994 69.4174 59.0602C69.4566 58.8253 69.4903 58.5896 69.5422 58.2277L69.5565 58.1278Z" fill="#415F5B"/>
<path d="M111.768 108.675C115.01 108.675 117.821 109.697 119.208 111.191C108.032 124.257 91.3983 132.542 72.8227 132.542C54.0583 132.542 37.275 124.087 26.0983 110.792C27.5877 109.518 30.1764 108.675 33.1205 108.675C37.5504 108.675 41.1756 110.583 41.4624 112.996H41.4807V120.471H43.9578V112.996H43.9761C44.2629 110.583 47.888 108.675 52.3179 108.675C56.7478 108.675 60.373 110.583 60.6598 112.996H60.6781V120.471H63.1552V112.996H63.1734C63.4603 110.583 67.0854 108.675 71.5153 108.675C75.9452 108.675 79.5704 110.583 79.8572 112.996H79.8755V120.471H82.3525V112.996H82.3708C82.6576 110.583 86.2828 108.675 90.7127 108.675C95.1426 108.675 98.7677 110.583 99.0545 112.996H99.0728V120.471H103.408V112.996H103.426C103.713 110.583 107.338 108.675 111.768 108.675Z" fill="#415F5B"/>
<path d="M39.6229 102.503C39.6229 105.912 36.8503 108.675 33.4302 108.675C30.01 108.675 27.2375 105.912 27.2375 102.503C27.2375 99.0941 30.01 96.3307 33.4302 96.3307C36.8503 96.3307 39.6229 99.0941 39.6229 102.503Z" fill="#415F5B"/>
<path d="M58.8203 102.503C58.8203 105.912 56.0477 108.675 52.6276 108.675C49.2074 108.675 46.4348 105.912 46.4348 102.503C46.4348 99.0941 49.2074 96.3307 52.6276 96.3307C56.0477 96.3307 58.8203 99.0941 58.8203 102.503Z" fill="#415F5B"/>
<path d="M71.8249 108.675C75.2451 108.675 78.0177 105.912 78.0177 102.503C78.0177 99.0941 75.2451 96.3307 71.8249 96.3307C68.4048 96.3307 65.6322 99.0941 65.6322 102.503C65.6322 105.912 68.4048 108.675 71.8249 108.675Z" fill="#415F5B"/>
<path d="M97.215 102.503C97.215 105.912 94.4425 108.675 91.0223 108.675C87.6022 108.675 84.8296 105.912 84.8296 102.503C84.8296 99.0941 87.6022 96.3307 91.0223 96.3307C94.4425 96.3307 97.215 99.0941 97.215 102.503Z" fill="#415F5B"/>
<path d="M112.078 108.675C115.498 108.675 118.27 105.912 118.27 102.503C118.27 99.0941 115.498 96.3307 112.078 96.3307C108.657 96.3307 105.885 99.0941 105.885 102.503C105.885 105.912 108.657 108.675 112.078 108.675Z" fill="#415F5B"/>
<path d="M10.6772 94.3033L3.9527 96.289L3.20562 93.7756C3.05257 93.2607 3.01391 92.8022 3.08965 92.4001C3.16473 91.9958 3.33767 91.6564 3.60845 91.3818C3.87641 91.1057 4.2249 90.9043 4.65393 90.7776C5.08516 90.6503 5.4867 90.6314 5.85858 90.721C6.22761 90.809 6.55112 91.0042 6.82911 91.3065C7.1049 91.6096 7.31933 92.0185 7.47237 92.5334L8.00447 94.3236L6.99318 94.6222L6.50971 92.9957C6.42022 92.6946 6.30535 92.4603 6.1651 92.2929C6.02266 92.1261 5.85683 92.0208 5.66761 91.977C5.47556 91.9317 5.26023 91.9443 5.02164 92.0147C4.78304 92.0852 4.59341 92.1922 4.45275 92.3358C4.30989 92.48 4.22322 92.661 4.19273 92.8789C4.16006 93.0974 4.18879 93.3583 4.27893 93.6615L4.60967 94.7742L10.3163 93.0891L10.6772 94.3033ZM6.60096 91.7406L9.15479 89.1816L9.55751 90.5365L6.99493 93.066L6.60096 91.7406Z" fill="#415F5B"/>
<path d="M2.84272 88.5757L1.79425 88.762L0.811718 83.2714L1.86019 83.0851L2.24082 85.2121L8.09675 84.171L8.31803 85.4076L2.4621 86.4486L2.84272 88.5757Z" fill="#415F5B"/>
<path d="M7.24197 74.5807C7.25359 75.1426 7.1209 75.6279 6.84391 76.0364C6.56459 76.4427 6.15669 76.7595 5.6202 76.9867C5.08138 77.2117 4.42966 77.3321 3.66501 77.3478C2.90033 77.3612 2.24758 77.2665 1.70676 77.0637C1.16362 76.8586 0.746399 76.5588 0.45509 76.1642C0.163734 75.7674 0.0122711 75.2891 0.000701381 74.7294C-0.0108684 74.1698 0.1207 73.6857 0.395407 73.2772C0.670114 72.8687 1.07459 72.552 1.60884 72.3271C2.14305 72.0999 2.79133 71.9785 3.55369 71.9628C4.32061 71.9471 4.97793 72.0417 5.52564 72.2467C6.07101 72.4494 6.49052 72.7492 6.78416 73.146C7.07775 73.5406 7.23035 74.0188 7.24197 74.5807ZM6.17033 74.6027C6.1613 74.1659 5.93848 73.8257 5.50186 73.582C5.06292 73.3361 4.42232 73.2218 3.58008 73.2391C3.02314 73.2506 2.55643 73.3182 2.17993 73.442C1.80343 73.5658 1.5215 73.7355 1.33415 73.951C1.14451 74.1665 1.05267 74.4188 1.05865 74.7077C1.06763 75.1422 1.29157 75.4813 1.73047 75.7249C2.16708 75.9686 2.80311 76.083 3.63856 76.0681C4.19782 76.0589 4.66687 75.9935 5.04569 75.8719C5.42448 75.7481 5.70869 75.5784 5.89832 75.3628C6.08568 75.1473 6.17635 74.8939 6.17033 74.6027Z" fill="#415F5B"/>
<path d="M0.333473 66.5704L7.32612 67.1073L7.22854 68.3699L1.46848 67.9276L1.46533 67.9685L2.38414 69.6788L1.22326 69.5897L0.240628 67.7717L0.333473 66.5704Z" fill="#415F5B"/>
<path d="M8.06066 61.1132L1.22376 59.555L1.81002 56.9996C1.93012 56.476 2.12213 56.0576 2.38605 55.7443C2.65048 55.4288 2.96825 55.2176 3.33937 55.1108C3.70876 55.0012 4.11156 54.9961 4.54777 55.0956C4.98621 55.1955 5.3454 55.3754 5.62536 55.6353C5.9036 55.8924 6.08941 56.2207 6.18278 56.6201C6.27393 57.0191 6.25946 57.4803 6.13935 58.0038L5.7218 59.8239L4.69359 59.5895L5.07298 57.9358C5.14321 57.6297 5.15843 57.3694 5.11864 57.1549C5.07663 56.9399 4.98397 56.7671 4.84065 56.6364C4.69562 56.5029 4.50181 56.4086 4.25922 56.3533C4.01664 56.298 3.79872 56.2985 3.60547 56.3549C3.40999 56.4107 3.24535 56.526 3.11154 56.701C2.97551 56.8754 2.87213 57.1168 2.80139 57.4251L2.54185 58.5564L8.34386 59.8788L8.06066 61.1132ZM5.77032 56.8868L9.25532 55.9059L8.93929 57.2834L5.46116 58.2344L5.77032 56.8868Z" fill="#415F5B"/>
<path d="M10.1219 52.8231L2.85866 52.2336L3.33529 50.9573L8.60622 51.5688L8.62892 51.508L4.26945 48.4557L4.70307 47.2946L10.0083 47.8241L10.0298 47.7666L5.63723 44.7931L6.11386 43.5167L11.9962 47.8041L11.559 48.9749L6.45735 48.5754L6.43824 48.6266L10.5592 51.6523L10.1219 52.8231Z" fill="#415F5B"/>
<path d="M14.8861 41.6649L14.0946 41.2018L13.2688 37.9046C13.1839 37.5857 13.102 37.3135 13.023 37.0879C12.9441 36.8623 12.8505 36.673 12.7421 36.5199C12.6338 36.3668 12.4959 36.2412 12.3285 36.1433C12.1376 36.0316 11.9487 35.9792 11.762 35.986C11.5733 35.9917 11.3971 36.0482 11.2333 36.1556C11.0695 36.2629 10.931 36.4127 10.8177 36.605C10.701 36.8032 10.64 37.0011 10.6349 37.1986C10.6278 37.395 10.6748 37.5782 10.7759 37.7481C10.8781 37.9161 11.0326 38.0606 11.2393 38.1816L10.6274 39.2206C10.2434 38.996 9.96114 38.7134 9.78049 38.3729C9.59983 38.0324 9.52188 37.6635 9.54664 37.2664C9.57255 36.8673 9.70282 36.4686 9.93743 36.0702C10.1755 35.666 10.4605 35.3551 10.7924 35.1377C11.1243 34.9203 11.4718 34.8043 11.8351 34.7899C12.1994 34.7736 12.5509 34.8645 12.8896 35.0626C13.116 35.1951 13.3131 35.3684 13.4807 35.5826C13.6484 35.7968 13.801 36.0906 13.9385 36.4639C14.0772 36.8353 14.2206 37.3268 14.3686 37.9385L14.8168 39.5979L14.8582 39.6221L16.4046 36.9964L17.3201 37.5321L14.8861 41.6649Z" fill="#415F5B"/>
<path d="M19.7082 34.2505C19.4071 34.6597 19.0706 34.9724 18.699 35.1889C18.3286 35.4035 17.9576 35.5132 17.586 35.518C17.2139 35.5197 16.8757 35.4078 16.5715 35.1826C16.3327 35.0108 16.1524 34.7999 16.0305 34.5499C15.9087 34.3 15.847 34.0376 15.8455 33.7627C15.8435 33.4846 15.9051 33.2221 16.0303 32.975L15.9917 32.9467C15.7139 33.1895 15.3928 33.316 15.0286 33.3262C14.6638 33.3332 14.3293 33.224 14.0251 32.9988C13.7329 32.7879 13.5328 32.5174 13.4247 32.1872C13.3167 31.857 13.3019 31.5019 13.3806 31.122C13.4574 30.7407 13.6301 30.3675 13.8989 30.0024C14.1649 29.641 14.4682 29.3674 14.8087 29.1818C15.1487 28.993 15.4929 28.9004 15.8414 28.904C16.1912 28.9058 16.5115 29.0131 16.8023 29.2257C17.1079 29.4492 17.3107 29.7372 17.4108 30.0898C17.5104 30.4392 17.4877 30.7796 17.3428 31.1111L17.3815 31.1394C17.5803 30.9461 17.8118 30.8106 18.0758 30.7327C18.3393 30.6517 18.609 30.6315 18.8848 30.6723C19.1619 30.7113 19.4192 30.8176 19.6566 30.9912C19.9622 31.2147 20.1694 31.5045 20.2782 31.8606C20.3851 32.2154 20.3915 32.601 20.2972 33.0175C20.2044 33.4322 20.008 33.8432 19.7082 34.2505ZM18.9186 33.6731C19.0739 33.4621 19.173 33.2524 19.216 33.0439C19.2572 32.8341 19.2432 32.6377 19.1742 32.4545C19.1051 32.2714 18.9847 32.1156 18.8131 31.9872C18.6313 31.8572 18.4377 31.7875 18.2321 31.7783C18.026 31.7659 17.8253 31.8097 17.63 31.9096C17.4361 32.0076 17.2655 32.1567 17.1183 32.3566C16.9698 32.5585 16.877 32.7672 16.84 32.9829C16.803 33.1985 16.8207 33.4034 16.8931 33.5974C16.965 33.7883 17.0918 33.9487 17.2735 34.0788C17.4452 34.2072 17.629 34.2767 17.825 34.2874C18.0192 34.2967 18.2105 34.2503 18.3989 34.1482C18.5887 34.0443 18.7619 33.8859 18.9186 33.6731ZM16.3424 31.7893C16.4694 31.6168 16.5465 31.439 16.5738 31.2557C16.6024 31.0706 16.5825 30.8938 16.5141 30.7252C16.4456 30.5566 16.3302 30.4115 16.1677 30.2899C16.0044 30.1733 15.8343 30.1082 15.6574 30.0945C15.4787 30.0796 15.3069 30.1148 15.1421 30.2003C14.9754 30.2844 14.8279 30.4136 14.6996 30.5879C14.5686 30.7659 14.4872 30.9477 14.4554 31.1332C14.423 31.3156 14.4409 31.4895 14.5088 31.6549C14.5763 31.8172 14.6917 31.9566 14.855 32.0732C15.0175 32.1948 15.189 32.2638 15.3695 32.2801C15.5496 32.2932 15.7248 32.2591 15.8952 32.1776C16.0651 32.093 16.2142 31.9636 16.3424 31.7893Z" fill="#415F5B"/>
<path d="M24.4487 23.3592L25.1792 24.0694L22.9746 26.3223L22.2441 25.6121L24.4487 23.3592Z" fill="#415F5B"/>
<path d="M30.4246 22.4837L26.148 16.9433L28.2325 15.3448C28.6595 15.0174 29.079 14.822 29.491 14.7587C29.9049 14.694 30.2932 14.7437 30.6559 14.9076C31.0191 15.0684 31.3364 15.3246 31.6079 15.6763C31.8821 16.0316 32.0507 16.4048 32.1135 16.7959C32.1763 17.187 32.1224 17.5743 31.9517 17.9578C31.7797 18.3395 31.4793 18.6947 31.0505 19.0236L29.669 20.083L29.0321 19.2579L30.2779 18.3025C30.5276 18.1111 30.6986 17.911 30.791 17.7023C30.8834 17.4936 30.9092 17.2844 30.8682 17.0746C30.8291 16.8635 30.7337 16.6596 30.5819 16.463C30.4302 16.2665 30.2576 16.1232 30.0643 16.0331C29.8727 15.9417 29.6644 15.9163 29.4394 15.9568C29.2147 15.9941 28.9766 16.1092 28.7251 16.3021L27.8023 17.0098L31.4315 21.7115L30.4246 22.4837Z" fill="#415F5B"/>
<path d="M36.1988 18.1669L32.5128 12.2199L36.3934 9.83042L36.9532 10.7335L34.1534 12.4575L35.1541 14.072L37.7528 12.4718L38.3126 13.3749L35.7138 14.9751L36.7199 16.5983L39.543 14.86L40.1027 15.7631L36.1988 18.1669Z" fill="#415F5B"/>
<path d="M42.8709 8.65296C42.7121 8.3984 42.4895 8.24779 42.2032 8.20115C41.919 8.15351 41.6073 8.21134 41.2681 8.37465C41.0296 8.48945 40.8424 8.62379 40.7066 8.77765C40.5707 8.93151 40.4873 9.09168 40.4564 9.25817C40.4256 9.42466 40.4473 9.58728 40.5217 9.74604C40.5853 9.87718 40.6702 9.97655 40.7765 10.0441C40.8848 10.1108 41.0078 10.1526 41.1454 10.1698C41.282 10.1849 41.425 10.1843 41.5743 10.168C41.7236 10.1517 41.8705 10.1278 42.0149 10.0961L42.6784 9.95863C42.9437 9.89914 43.2091 9.86358 43.4748 9.85193C43.7425 9.8393 43.9985 9.86263 44.2427 9.92193C44.489 9.98025 44.7127 10.0861 44.9138 10.2395C45.1149 10.3928 45.2815 10.6058 45.4135 10.8783C45.5923 11.2471 45.6551 11.6174 45.602 11.9891C45.5479 12.3589 45.3803 12.7087 45.099 13.0387C44.8188 13.3656 44.4259 13.6508 43.9202 13.8943C43.4289 14.1309 42.9655 14.2604 42.5303 14.283C42.097 14.3046 41.7081 14.2189 41.3636 14.0259C41.0212 13.8319 40.7404 13.5299 40.5214 13.1198L41.6469 12.5779C41.7696 12.7893 41.9258 12.939 42.1156 13.027C42.3053 13.1151 42.5131 13.149 42.7391 13.1287C42.9671 13.1073 43.2003 13.0393 43.4388 12.9245C43.6875 12.8047 43.8875 12.6629 44.0389 12.4991C44.1913 12.3322 44.2886 12.1565 44.331 11.9718C44.3723 11.7851 44.3504 11.6011 44.265 11.4198C44.1835 11.2569 44.0697 11.1449 43.9235 11.0839C43.7763 11.0208 43.6 10.9945 43.3946 11.0049C43.1903 11.0123 42.9612 11.0418 42.7073 11.0933L41.8994 11.2548C41.3148 11.372 40.8058 11.3681 40.3725 11.2431C39.9403 11.1151 39.615 10.8257 39.3966 10.3749C39.2168 10.0041 39.1602 9.6308 39.2266 9.25515C39.2951 8.87851 39.4668 8.52922 39.7418 8.20729C40.0158 7.88332 40.3738 7.61494 40.8158 7.40215C41.2639 7.18639 41.6943 7.07522 42.1069 7.06863C42.5206 7.059 42.8906 7.14495 43.2169 7.32648C43.5422 7.50596 43.7938 7.77146 43.9718 8.12297L42.8709 8.65296Z" fill="#415F5B"/>
<path d="M53.1646 6.37101C53.4098 7.08345 53.486 7.73942 53.393 8.33894C53.3015 8.93557 53.072 9.44704 52.7047 9.87336C52.3395 10.2989 51.8664 10.611 51.2855 10.8097C50.7046 11.0083 50.1379 11.0517 49.5853 10.9399C49.0342 10.8253 48.5377 10.5608 48.0958 10.1466C47.6554 9.72943 47.3129 9.16572 47.0685 8.45543C46.8233 7.743 46.7464 7.08847 46.8379 6.49184C46.9309 5.89232 47.16 5.37977 47.5252 4.95419C47.8925 4.52787 48.3667 4.2154 48.9476 4.01678C49.5284 3.81816 50.0941 3.7751 50.6445 3.88761C51.1971 3.99939 51.6936 4.26384 52.134 4.68098C52.5759 5.09523 52.9194 5.65858 53.1646 6.37101ZM51.9564 6.78413C51.7838 6.28263 51.5594 5.88664 51.2832 5.59616C51.0085 5.30279 50.7025 5.11511 50.3654 5.03313C50.0275 4.94899 49.6782 4.96858 49.3176 5.09189C48.957 5.2152 48.6692 5.41343 48.4543 5.68659C48.2386 5.95759 48.1116 6.29331 48.0732 6.69375C48.0362 7.09129 48.1041 7.54081 48.2767 8.04232C48.4493 8.54382 48.673 8.94125 48.9477 9.23462C49.2239 9.5251 49.5309 9.71241 49.8688 9.79654C50.206 9.87853 50.5549 9.85787 50.9155 9.73456C51.2761 9.61125 51.5643 9.41409 51.7799 9.14309C51.9949 8.86993 52.1208 8.53458 52.1578 8.13703C52.1961 7.7366 52.129 7.28563 51.9564 6.78413Z" fill="#415F5B"/>
<path d="M60.1319 1.13916L61.601 7.97442L60.496 8.21036L56.264 4.24446L56.207 4.25661L57.2077 8.91247L55.9654 9.17772L54.4963 2.34246L55.608 2.10509L59.8374 6.07505L59.8977 6.06218L58.8963 1.40299L60.1319 1.13916Z" fill="#415F5B"/>
<path d="M64.6916 7.49559L63.3409 7.61538L65.1787 0.434449L66.7409 0.29591L69.8252 7.04035L68.4744 7.16013L66.1146 1.79068L66.06 1.79552L64.6916 7.49559ZM64.4923 4.7616L68.1762 4.43492L68.2666 5.44806L64.5827 5.77475L64.4923 4.7616Z" fill="#415F5B"/>
<path d="M74.9808 6.96969L75.5195 0L78.1417 0.201333C78.6789 0.242578 79.1219 0.377009 79.4707 0.604624C79.8217 0.832415 80.0771 1.12817 80.2367 1.49189C80.3988 1.85352 80.4628 2.25554 80.4286 2.69796C80.3941 3.14491 80.2689 3.53469 80.0531 3.86731C79.8374 4.19992 79.5374 4.4519 79.1532 4.62324C78.7692 4.79231 78.3075 4.85614 77.768 4.81472L76.0301 4.68128L76.1103 3.64332L77.6775 3.76365C77.9916 3.78776 78.2531 3.75306 78.4618 3.65954C78.6705 3.56602 78.8301 3.42764 78.9404 3.2444C79.053 3.06134 79.1188 2.84616 79.138 2.59886C79.1571 2.35157 79.125 2.13001 79.0416 1.93418C78.9606 1.73853 78.8228 1.58075 78.6283 1.46083C78.4362 1.33882 78.182 1.26567 77.8656 1.24137L76.7047 1.15224L76.2476 7.06695L74.9808 6.96969Z" fill="#415F5B"/>
<path d="M82.1374 7.58029L83.4229 0.708394L86.0084 1.1889C86.538 1.28734 86.9653 1.46164 87.29 1.71181C87.6171 1.96239 87.8416 2.27032 87.9637 2.63559C88.0885 2.99904 88.1098 3.39999 88.0278 3.83843C87.9454 4.27911 87.7796 4.64411 87.5304 4.93343C87.2838 5.22093 86.9622 5.41925 86.5656 5.5284C86.1694 5.63531 85.7064 5.63954 85.1768 5.54111L83.3353 5.19887L83.5286 4.1654L85.2018 4.47635C85.5115 4.53392 85.7731 4.53855 85.9865 4.49025C86.2003 4.43971 86.3698 4.34044 86.495 4.19242C86.6229 4.04259 86.7097 3.84576 86.7553 3.60193C86.8009 3.3581 86.7916 3.1411 86.7273 2.95092C86.6634 2.7585 86.5411 2.5992 86.3604 2.47302C86.18 2.3446 85.9339 2.2514 85.6219 2.19342L84.4773 1.98069L83.3863 7.81241L82.1374 7.58029ZM86.2816 5.12841L87.4059 8.55945L86.0122 8.30043L84.9182 4.87502L86.2816 5.12841Z" fill="#415F5B"/>
<path d="M92.3604 2.63386L90.5228 9.37997L89.2967 9.04818L91.1343 2.30206L92.3604 2.63386Z" fill="#415F5B"/>
<path d="M94.7035 3.19136L96.1586 3.7372L96.3172 9.20882L96.3941 9.23767L100.133 5.22803L101.588 5.77386L99.1175 12.3162L97.9765 11.8882L99.6737 7.39352L99.6128 7.37068L96.1088 11.1657L95.2563 10.8459L95.1358 5.68031L95.0749 5.65746L93.3741 10.1617L92.2331 9.73369L94.7035 3.19136Z" fill="#415F5B"/>
<path d="M101.962 13.6469L100.766 13.0098L106.249 8.00462L107.632 8.74145L106.507 16.0681L105.311 15.4311L106.287 9.65024L106.239 9.6245L101.962 13.6469ZM103.297 11.2505L106.559 12.988L106.078 13.8851L102.816 12.1476L103.297 11.2505Z" fill="#415F5B"/>
<path d="M118.479 18.8535L117.469 18.0685C117.569 17.881 117.63 17.6935 117.653 17.5059C117.676 17.3166 117.666 17.1323 117.621 16.953C117.576 16.7737 117.497 16.6043 117.384 16.4447C117.275 16.2847 117.136 16.1389 116.966 16.0074C116.666 15.7737 116.34 15.642 115.99 15.6122C115.641 15.5807 115.288 15.6583 114.931 15.845C114.575 16.03 114.235 16.3297 113.91 16.7443C113.581 17.166 113.368 17.5723 113.274 17.9634C113.182 18.354 113.194 18.7125 113.31 19.0387C113.428 19.3646 113.637 19.6436 113.936 19.8759C114.101 20.0046 114.273 20.1035 114.451 20.1723C114.632 20.2408 114.813 20.2767 114.996 20.2802C115.18 20.285 115.361 20.2554 115.539 20.1913C115.718 20.1287 115.886 20.0285 116.043 19.8908L117.049 20.6811C116.806 20.9137 116.532 21.0959 116.226 21.2277C115.922 21.3608 115.601 21.4369 115.262 21.4561C114.924 21.4734 114.581 21.4265 114.234 21.3153C113.888 21.2023 113.55 21.0178 113.221 20.7618C112.735 20.384 112.389 19.9346 112.183 19.4136C111.976 18.8927 111.929 18.3351 112.041 17.7409C112.152 17.1467 112.44 16.5536 112.903 15.9614C113.368 15.3674 113.876 14.9457 114.427 14.6961C114.98 14.4447 115.535 14.3552 116.092 14.4275C116.649 14.4998 117.169 14.7235 117.651 15.0985C117.959 15.3377 118.212 15.6033 118.409 15.8951C118.606 16.1869 118.743 16.4967 118.82 16.8245C118.898 17.1505 118.909 17.4855 118.854 17.8295C118.803 18.1731 118.677 18.5145 118.479 18.8535Z" fill="#415F5B"/>
<path d="M122.879 19.6469L118.114 24.776L117.182 23.9156L121.947 18.7866L122.879 19.6469Z" fill="#415F5B"/>
<path d="M119.439 25.9495L124.591 21.2062L125.453 22.1363L123.086 24.3158L123.144 24.3785L127.368 24.2023L128.42 25.338L124.268 25.4808L123.285 30.0989L122.249 28.9807L123.037 25.4153L121.836 25.4669L120.301 26.8797L119.439 25.9495Z" fill="#415F5B"/>
<path d="M124.811 31.9558L124.013 30.8631L131.136 28.738L132.059 30.0017L127.844 36.1086L127.046 35.0159L130.451 30.2357L130.418 30.1916L124.811 31.9558ZM127.06 30.3784L129.237 33.3584L128.412 33.9571L126.235 30.9771L127.06 30.3784Z" fill="#415F5B"/>
<path d="M128.922 37.687L135.051 34.2895L135.668 35.3962L133.074 36.8345L134.653 39.6654L137.248 38.2271L137.867 39.3367L131.738 42.7342L131.119 41.6245L133.722 40.1813L132.143 37.3504L129.539 38.7937L128.922 37.687Z" fill="#415F5B"/>
<path d="M140.869 46.0062L141.35 47.1782L137.109 48.9076C136.644 49.0971 136.19 49.1544 135.747 49.0792C135.305 49.0062 134.904 48.8133 134.544 48.5004C134.186 48.1867 133.899 47.7666 133.683 47.2401C133.466 46.7115 133.375 46.2102 133.409 45.7362C133.446 45.2614 133.597 44.8436 133.861 44.4828C134.124 44.122 134.489 43.8468 134.954 43.6572L139.194 41.9279L139.676 43.0999L135.533 44.7891C135.263 44.8994 135.046 45.0566 134.883 45.2607C134.721 45.4669 134.624 45.7031 134.593 45.9691C134.564 46.2343 134.61 46.5154 134.732 46.8123C134.854 47.1093 135.018 47.3421 135.226 47.5107C135.436 47.6807 135.671 47.7815 135.931 47.8133C136.19 47.845 136.456 47.8058 136.726 47.6955L140.869 46.0062Z" fill="#415F5B"/>
<path d="M135.791 52.3808L142.553 50.5247L143.251 53.052C143.394 53.5697 143.424 54.0289 143.34 54.4294C143.257 54.8322 143.078 55.1682 142.802 55.4375C142.529 55.7084 142.176 55.9031 141.745 56.0215C141.311 56.1406 140.909 56.1517 140.539 56.0551C140.172 55.96 139.852 55.7586 139.58 55.4509C139.311 55.1427 139.104 54.7297 138.961 54.2119L138.464 52.4119L139.48 52.1328L139.932 53.7683C140.016 54.071 140.126 54.3074 140.263 54.4775C140.403 54.647 140.566 54.7555 140.755 54.8029C140.946 54.8519 141.161 54.8435 141.401 54.7776C141.641 54.7118 141.833 54.6084 141.976 54.4676C142.122 54.3261 142.212 54.1468 142.247 53.9295C142.284 53.7117 142.26 53.4503 142.176 53.1454L141.866 52.0265L136.128 53.6017L135.791 52.3808ZM139.817 55.0214L137.214 57.5308L136.838 56.1685L139.449 53.6886L139.817 55.0214Z" fill="#415F5B"/>
<path d="M144.708 59.2073L137.823 60.5402L137.581 59.2971L144.466 57.9643L144.708 59.2073Z" fill="#415F5B"/>
<path d="M138.224 62.3902L145.194 61.612L145.487 64.2171C145.547 64.7507 145.497 65.2096 145.338 65.5938C145.18 65.9801 144.936 66.2855 144.607 66.51C144.281 66.7364 143.897 66.8744 143.455 66.9238C143.008 66.9737 142.6 66.9241 142.232 66.7752C141.864 66.6263 141.559 66.3798 141.318 66.0357C141.08 65.6914 140.93 65.2513 140.87 64.7154L140.676 62.9888L141.714 62.8729L141.889 64.4299C141.924 64.7419 142.007 64.9914 142.139 65.1782C142.27 65.3651 142.436 65.4954 142.637 65.569C142.839 65.645 143.063 65.6692 143.311 65.6416C143.558 65.614 143.77 65.541 143.948 65.4228C144.125 65.3067 144.255 65.1423 144.337 64.9294C144.421 64.7185 144.446 64.4558 144.41 64.1415L144.281 62.9882L138.366 63.6487L138.224 62.3902Z" fill="#415F5B"/>
<path d="M138.993 70.4955L139.001 69.1439L146 71.645L145.991 73.2083L138.964 75.6324L138.971 74.2807L144.557 72.4457L144.557 72.3911L138.993 70.4955ZM141.743 70.5557L141.721 74.2419L140.701 74.236L140.722 70.5498L141.743 70.5557Z" fill="#415F5B"/>
<path d="M145.156 83.8965L138.198 83.0235L138.339 81.906L143.491 79.2326L143.499 79.175L138.759 78.5804L138.918 77.324L145.876 78.197L145.734 79.3213L140.579 81.9909L140.571 82.0518L145.314 82.6469L145.156 83.8965Z" fill="#415F5B"/>
<path d="M136.31 90.8775C136.408 90.5577 136.558 90.2615 136.759 89.9889C136.962 89.717 137.225 89.4961 137.547 89.3263C137.872 89.1572 138.264 89.0626 138.723 89.0426C139.184 89.0233 139.722 89.1067 140.338 89.2928C140.914 89.4644 141.408 89.6783 141.822 89.9348C142.236 90.1912 142.564 90.4802 142.806 90.8017C143.05 91.1239 143.205 91.4707 143.273 91.8423C143.339 92.216 143.312 92.6035 143.192 93.0046C143.066 93.4254 142.871 93.7734 142.607 94.0486C142.342 94.326 142.036 94.522 141.687 94.6365C141.34 94.7516 140.979 94.7793 140.604 94.7197L140.962 93.5261C141.239 93.542 141.482 93.478 141.692 93.334C141.903 93.1928 142.052 92.9783 142.139 92.6906C142.278 92.2262 142.183 91.8084 141.854 91.437C141.524 91.0678 141.006 90.7768 140.3 90.564L140.286 90.6097C140.447 90.774 140.57 90.9616 140.657 91.1728C140.744 91.3839 140.792 91.6074 140.802 91.8432C140.814 92.0818 140.784 92.3211 140.712 92.5609C140.594 92.9533 140.395 93.2773 140.113 93.533C139.831 93.7908 139.497 93.962 139.112 94.0467C138.729 94.1319 138.325 94.1102 137.901 93.9815C137.459 93.852 137.092 93.6333 136.801 93.3256C136.512 93.0185 136.321 92.654 136.228 92.2321C136.136 91.8102 136.163 91.3587 136.31 90.8775ZM137.296 91.1645C137.224 91.4021 137.219 91.632 137.278 91.854C137.338 92.0761 137.45 92.2709 137.614 92.4386C137.778 92.6063 137.983 92.7256 138.229 92.7965C138.469 92.8704 138.702 92.883 138.929 92.8342C139.155 92.7876 139.352 92.6886 139.522 92.5372C139.691 92.3859 139.811 92.1913 139.883 91.9537C139.936 91.7771 139.951 91.6024 139.929 91.4296C139.907 91.2568 139.853 91.0958 139.767 90.9465C139.683 90.798 139.572 90.6675 139.434 90.5551C139.298 90.4456 139.141 90.3633 138.965 90.3083C138.73 90.2407 138.498 90.231 138.269 90.2791C138.04 90.3272 137.839 90.4274 137.664 90.5797C137.49 90.7319 137.367 90.9269 137.296 91.1645Z" fill="#415F5B"/>
</svg>
